<svg width="542" height="296" viewBox="0 0 542 296" fill="none" xmlns="http://www.w3.org/2000/svg">
<path d="M113.139 2.5099H4.5297H3L159.03 294.173H215.629L269.169 196.782L322.198 294.173H381.857L538.906 2H343.104L323.218 38.203L341.575 66.7574L366.56 31.5743L487.916 31.0644L365.54 263.579H339.025L270.698 135.594L270.188 136.614L203.391 263.579H175.857L54.5 32.0842H100.391L190.644 194.233L247.753 93.2723L214.609 31.5743H260.5L352.283 193.213L421.629 67.7772H390.015L352.283 134.064L276.817 2.5099H164.639L215.629 93.2723L185.545 139.163L113.139 2.5099Z" fill="#D17748" stroke="#181331" stroke-width="3"/>
</svg>
