<svg width="526" height="435" viewBox="0 0 526 435" fill="none" xmlns="http://www.w3.org/2000/svg">
<path d="M108 0.5H1.5H0L153 286.5H208.5L261 191L313 286.5H371.5L525.5 0H333.5L314 35.5L332 63.5L356.5 29L475.5 28.5L355.5 256.5H329.5L262.5 131L262 132L196.5 256.5H169.5L50.5 29.5H95.5004L184 188.5L240 89.5L207.5 29H252.5L342.5 187.5L410.5 64.5H379.5L342.5 129.5L268.5 0.5H158.5L208.5 89.5L179 134.5L108 0.5Z" fill="#D17748"/>
<path d="M22.6016 401.584L23.9022 415.562L25.8066 402.967L39.184 329H46.7088L59.7611 402.967L61.619 415.78L63.059 401.511L73.5565 329H82.5212L66.1246 435H57.996L44.0612 357.757L42.9929 349.676L41.9245 357.757L27.4788 435H19.3502L3 329H11.9183L22.6016 401.584Z" fill="#D1784C"/>
<path d="M144.438 435H135.473V386.004H101.38V435H92.4614V329H101.38V374.574H135.473V329H144.438V435Z" fill="#D1784C"/>
<path d="M198.459 407.335H170.125L163.761 435H154.564L180.39 329H188.193L214.066 435H204.915L198.459 407.335ZM172.819 395.832H195.811L184.292 346.254L172.819 395.832Z" fill="#D1784C"/>
<path d="M232.134 423.57H264.184V435H223.17V329H232.134V423.57Z" fill="#D1784C"/>
<path d="M312.585 386.004H283.275V423.57H317.322V435H274.357V329H316.858V340.503H283.275V374.574H312.585V386.004Z" fill="#D1784C"/>
<path d="M339.943 329L362.053 415.489L384.163 329H395.729V435H386.811V393.721L387.647 349.166L365.444 435H358.616L336.46 349.385L337.342 393.721V435H328.424V329H339.943Z" fill="#D1784C"/>
<path d="M449.657 407.335H421.322L414.959 435H405.762L431.588 329H439.391L465.264 435H456.113L449.657 407.335ZM424.017 395.832H447.009L435.49 346.254L424.017 395.832Z" fill="#D1784C"/>
<path d="M483.286 393.503V435H474.368V329H499.311C506.712 329 512.502 331.961 516.683 337.882C520.894 343.803 523 351.641 523 361.397C523 371.686 520.941 379.622 516.822 385.203C512.735 390.736 506.867 393.503 499.218 393.503H483.286ZM483.286 382.073H499.311C504.08 382.073 507.734 380.326 510.273 376.831C512.812 373.288 514.082 368.192 514.082 361.543C514.082 355.233 512.812 350.185 510.273 346.4C507.734 342.614 504.25 340.648 499.822 340.503H483.286V382.073Z" fill="#D1784C"/>
</svg>
